GIL08_fast1_RRA_states
nRows=8
nColumns=47

# SIMM Motion File Header:
name GIL08_fast1_RRA_states
datacolumns 47
datarows 8
otherdata 1
range 0.32767000000000018000 0.33117000000000019000
endheader
time	pelvis_tx	pelvis_ty	pelvis_tz	pelvis_tilt	pelvis_list	pelvis_rotation	hip_flexion_r	hip_adduction_r	hip_rotation_r	knee_angle_r	ankle_angle_r	subtalar_angle_r	mtp_angle_r	hip_flexion_l	hip_adduction_l	hip_rotation_l	knee_angle_l	ankle_angle_l	subtalar_angle_l	mtp_angle_l	lumbar_extension	lumbar_bending	lumbar_rotation	pelvis_tx_u	pelvis_ty_u	pelvis_tz_u	pelvis_tilt_u	pelvis_list_u	pelvis_rotation_u	hip_flexion_r_u	hip_adduction_r_u	hip_rotation_r_u	knee_angle_r_u	ankle_angle_r_u	subtalar_angle_r_u	mtp_angle_r_u	hip_flexion_l_u	hip_adduction_l_u	hip_rotation_l_u	knee_angle_l_u	ankle_angle_l_u	subtalar_angle_l_u	mtp_angle_l_u	lumbar_extension_u	lumbar_bending_u	lumbar_rotation_u
      0.32767000000000018000	      0.84864631616027175000	      0.95989262327831670000	     -0.24880761805766172000	      3.08489391651846080000	      0.94011488194622705000	     -3.77259556025381440000	     20.68229662905401500000	     -0.51812375795899457000	      3.90766521019567210000	    -47.14888926976649200000	      8.64440691591511450000	      0.00000000000000320020	     -0.00000000000000406121	     -7.19189825097957500000	      2.27024047596664770000	      5.18141326101343760000	    -14.18379477310834100000	     15.46619633917495300000	     -0.00000000000001401083	     -0.00000000000019021221	    -10.58271791725806700000	     -3.54101685944422950000	      2.91629371154778290000	      1.45715453789794160000	     -0.08914030222562149800	     -0.04184603924023458400	     -5.89059462995109760000	    -47.10431606747543000000	     78.01996969910530300000	     94.90164337744583600000	     43.86665319828961900000	     12.84487926192188000000	    245.58464899680538000000	     33.08384810958931900000	      0.00000000000002558539	     -0.00000000000004701117	   -128.48498658970772000000	    -60.05937353335384900000	     52.32300972889733300000	     57.33050312451555900000	     37.27975653397452800000	      0.00000000000023428650	     -0.00000000000225212027	    -13.08425404704472500000	     66.45987079350234700000	    -49.90754183366866000000
      0.32817000000000018000	      0.84937505910392386000	      0.95984779624917593000	     -0.24882862920461740000	      3.08199839431228510000	      0.91657806160976729000	     -3.73350953210367690000	     20.72953262909888700000	     -0.49632294624606710000	      3.91409044712385910000	    -47.02578471645024600000	      8.66067469868642090000	      0.00000000000000321318	     -0.00000000000000408419	     -7.25621357452023470000	      2.24019683877385360000	      5.20784873171015580000	    -14.15505778234903300000	     15.48473286145482300000	     -0.00000000000001390008	     -0.00000000000019131910	    -10.58927881389426800000	     -3.50779237852954080000	      2.89132228292354790000	      1.45781891829108300000	     -0.09016756739649134400	     -0.04219822479511075400	     -5.69165338287639160000	    -47.04219690340220700000	     78.32333777120990700000	     94.04268166668194300000	     43.33570634996478100000	     12.85485643151396900000	    246.83237733016995000000	     31.98500320016955100000	      0.00000000000002603387	     -0.00000000000004482163	   -128.77637811867658000000	    -60.11428547676509700000	     53.41692675762447400000	     57.61755401451275600000	     36.86589338539236800000	      0.00000000000021958619	     -0.00000000000220653372	    -13.15855524045655200000	     66.43727421065656800000	    -49.97792658767556200000
      0.32867000000000018000	      0.85010413676300878000	      0.95980245596373870000	     -0.24884981593335465000	      3.07920210672030150000	      0.89307345724603848000	     -3.69427305033085050000	     20.77633963637564900000	     -0.47478893296892222000	      3.92051886087220640000	    -46.90205808596375900000	      8.67638963953185540000	      0.00000000000000322605	     -0.00000000000000410676	     -7.32067470974362780000	      2.21012708806898140000	      5.23482822104758760000	    -14.12617711640157800000	     15.50306176432382600000	     -0.00000000000001379157	     -0.00000000000019241212	    -10.59587569814452800000	     -3.47458037221912800000	      2.86631605183126890000	      1.45849340459765250000	     -0.09119331435074737300	     -0.04254831533317361700	     -5.49365087191411220000	    -46.97544460553093200000	     78.62173841477685700000	     93.18567491629394800000	     42.79947202890151900000	     12.85759890905529600000	    248.07294297198754000000	     30.87248216245276600000	      0.00000000000002580144	     -0.00000000000004567911	   -129.06825317586828000000	    -60.16381185297450400000	     54.49904217890839000000	     57.90522062230145700000	     36.44922080135778200000	      0.00000000000019802569	     -0.00000000000211425841	    -13.22821025279834300000	     66.40995575090039400000	    -50.04671006142506000000
      0.32917000000000018000	      0.85083355417080997000	      0.95975660317251221000	     -0.24887117714434351000	      3.07650457296053310000	      0.86960340296761263000	     -3.65488864318430370000	     20.82271866329427500000	     -0.45352435146613451000	      3.92694683500738910000	    -46.77771300654820400000	      8.69154492758695520000	      0.00000000000000323877	     -0.00000000000000412997	     -7.38528188968557320000	      2.18003394209505700000	      5.26234575032819230000	    -14.09715247352054300000	     15.52118163316854400000	     -0.00000000000001368813	     -0.00000000000019348842	    -10.60250623989959900000	     -3.44138322747317020000	      2.84127584238386440000	      1.45917786383829220000	     -0.09221763379999771400	     -0.04289615170411285900	     -5.29667141869737800000	    -46.90397659836094100000	     78.91504164356945200000	     92.33082485291977500000	     42.25797482928726400000	     12.85307514182702500000	    249.30610861274377000000	     29.74644303764055000000	      0.00000000000002580668	     -0.00000000000004805642	   -129.36049989881707000000	    -60.20784706006492100000	     55.56901490901399400000	     58.19341606426454700000	     36.02985370710514700000	      0.00000000000021085388	     -0.00000000000211383090	    -13.29315977041612000000	     66.37780910740467300000	    -50.11387626695496100000
      0.32967000000000019000	      0.85156331626717230000	      0.95971023855288895000	     -0.24889271168272267000	      3.07390525091319100000	      0.84617028041280629000	     -3.61535887999293330000	     20.86867085401026100000	     -0.43253183136560586000	      3.93337071912640510000	    -46.65275325012552100000	      8.70613385603560630000	      0.00000000000000325156	     -0.00000000000000415415	     -7.45003525320272700000	      2.14992017405397110000	      5.29039515570746130000	    -14.06798362697104900000	     15.53909118543618500000	     -0.00000000000001357963	     -0.00000000000019455318	    -10.60916806402992000000	     -3.40820338567615130000	      2.81620244783100390000	      1.45987216424385280000	     -0.09324061424473384400	     -0.04324157365878112500	     -5.10079853770906680000	    -46.82771009816332300000	     79.20311671149008200000	     91.47833250583029500000	     41.71123897406307900000	     12.84124990291146600000	    250.53163609685501000000	     28.60704611707097200000	      0.00000000000002511108	     -0.00000000000004829353	   -129.65300763810635000000	    -60.24628391828761000000	     56.62650490498346300000	     58.48205126539702500000	     35.60789101687454000000	      0.00000000000021869609	     -0.00000000000213377035	    -13.35334593259813300000	     66.34072712632117000000	    -50.17940882224024100000
      0.33017000000000019000	      0.85229342795137275000	      0.95966336276668407000	     -0.24891441828959557000	      3.07140357616495010000	      0.82277650616467179000	     -3.57568641863641950000	     20.91419742186128500000	     -0.41181398141545278000	      3.93978686348217620000	    -46.52718268287487300000	      8.72014977604134240000	      0.00000000000000326419	     -0.00000000000000417852	     -7.51493492202578930000	      2.11978860855715870000	      5.31897011995419340000	    -14.03867036392370000000	     15.55678911148432800000	     -0.00000000000001346703	     -0.00000000000019562220	    -10.61585878321994300000	     -3.37504334054978370000	      2.79109670780455850000	      1.46057616174232850000	     -0.09426234280795953200	     -0.04358442467209656900	     -4.90611538102738990000	    -46.74656390776146300000	     79.48583838626422000000	     90.62839753145213700000	     41.15929019838722500000	     12.82209602250142500000	    251.74928747871883000000	     27.45446474442214700000	      0.00000000000002531005	     -0.00000000000004870381	   -129.94566331180718000000	    -60.27901838532096700000	     57.67118195007107300000	     58.77103604462585900000	     35.18345212978113100000	      0.00000000000022815812	     -0.00000000000214562070	    -13.40871642176423800000	     66.29860392448708200000	    -50.24329580308647500000
      0.33067000000000019000	      0.85302389402142076000	      0.95961597640436713000	     -0.24893629565274583000	      3.06899892355746570000	      0.79942454337528701000	     -3.53587395473642060000	     20.95929971075934600000	     -0.39137340590056091000	      3.94619158858790490000	    -46.40100531487691200000	      8.73358615241868290000	      0.00000000000000327670	     -0.00000000000000420309	     -7.57998092256270970000	      2.08964212365419130000	      5.34806414754956360000	    -14.00921254800974600000	     15.57427424203564700000	     -0.00000000000001334833	     -0.00000000000019671043	    -10.62257596936404800000	     -3.34190563974823810000	      2.76595942829105910000	      1.46128971346762790000	     -0.09528290435291782200	     -0.04392454739678307300	     -4.71270431115870280000	    -46.66045660626198100000	     79.76308096815860400000	     89.78121888351864800000	     40.60215373638182300000	     12.79558264707894500000	    252.95882398880619000000	     26.28887464580361300000	      0.00000000000002497008	     -0.00000000000004965542	   -130.23835492844785000000	    -60.30594487518472800000	     58.70271713684846300000	     59.06027788331475400000	     34.75664002139839700000	      0.00000000000025186870	     -0.00000000000217554255	    -13.45922035189552400000	     66.25133280523343200000	    -50.30552515807187300000
      0.33117000000000019000	      0.85375471923148760000	      0.95956808004269289000	     -0.24895834235666528000	      3.06669064620513640000	      0.77611688972768644000	     -3.49592427086454240000	     21.00397913290088100000	     -0.37121268792034567000	      3.95258121575588280000	    -46.27422525086976200000	      8.74643651374671900000	      0.00000000000000328888	     -0.00000000000000422748	     -7.64517326393815380000	      2.05948364874533720000	      5.37767059376276450000	    -13.97961005870667400000	     15.59154537661508400000	     -0.00000000000001322545	     -0.00000000000019778924	    -10.62931718492132300000	     -3.30879288330983810000	      2.74079146020955640000	      1.46201266423202370000	     -0.09630238234688942600	     -0.04426178768107231300	     -4.52064730835025320000	    -46.56930838043555800000	     80.03472399098397700000	     88.93699417036890500000	     40.03985645116203800000	     12.76168697921315800000	    254.16000705688666000000	     25.11046446732856900000	      0.00000000000002484574	     -0.00000000000004893762	   -130.53096816377632000000	    -60.32696089128124600000	     59.72079112621192800000	     59.34968330694562900000	     34.32757857187419100000	      0.00000000000024642038	     -0.00000000000212038533	    -13.50481238985882400000	     66.19880830450971100000	    -50.36608903751191200000
